<?xml version="1.0"?>
<svg xmlns="http://www.w3.org/2000/svg" xmlns:xlink="http://www.w3.org/1999/xlink" xmlns:svgjs="http://svgjs.com/svgjs" version="1.1" width="512" height="512" x="0" y="0" viewBox="0 0 480 480" style="enable-background:new 0 0 512 512" xml:space="preserve" class=""><g><path xmlns="http://www.w3.org/2000/svg" d="m192 0c-113.046875 0-192 82.238281-192 200s111.246094 280 192 280 192-162.238281 192-280-78.953125-200-192-200zm0 464c-66.871094 0-176-147.488281-176-264 0-108.335938 72.375-184 176-184s176 75.664062 176 184c0 116.511719-109.128906 264-176 264zm0 0" fill="#ffffff" data-original="#000000" style="" class=""/><path xmlns="http://www.w3.org/2000/svg" d="m176 312v-40c-.027344-26.5-21.5-47.972656-48-48h-72c-4.417969 0-8 3.582031-8 8v40c.027344 26.5 21.5 47.972656 48 48h72c4.417969 0 8-3.582031 8-8zm-16-8h-64c-17.671875 0-32-14.328125-32-32v-32h64c17.671875 0 32 14.328125 32 32zm0 0" fill="#ffffff" data-original="#000000" style="" class=""/><path xmlns="http://www.w3.org/2000/svg" d="m328 224h-72c-26.5.027344-47.972656 21.5-48 48v40c0 4.417969 3.582031 8 8 8h72c26.5-.027344 47.972656-21.5 48-48v-40c0-4.417969-3.582031-8-8-8zm-8 48c0 17.671875-14.328125 32-32 32h-64v-32c0-17.671875 14.328125-32 32-32h64zm0 0" fill="#ffffff" data-original="#000000" style="" class=""/><path xmlns="http://www.w3.org/2000/svg" d="m208 416h-32c-4.417969 0-8 3.582031-8 8s3.582031 8 8 8h32c4.417969 0 8-3.582031 8-8s-3.582031-8-8-8zm0 0" fill="#ffffff" data-original="#000000" style="" class=""/><path xmlns="http://www.w3.org/2000/svg" d="m242.105469 48.28125c-4.265625-1.164062-8.664063 1.351562-9.824219 5.613281-1.164062 4.265625 1.351562 8.664063 5.613281 9.824219 81.402344 22.203125 89.816407 109.257812 90.105469 112.953125.351562 4.152344 3.832031 7.34375 8 7.328125h.679688c2.121093-.171875 4.085937-1.183594 5.460937-2.8125 1.375-1.625 2.042969-3.730469 1.859375-5.851562-.113281-1.015626-9.558594-101.871094-101.894531-127.054688zm0 0" fill="#ffffff" data-original="#000000" style="" class=""/><path xmlns="http://www.w3.org/2000/svg" d="m192 56h16c4.417969 0 8-3.582031 8-8s-3.582031-8-8-8h-16c-4.417969 0-8 3.582031-8 8s3.582031 8 8 8zm0 0" fill="#ffffff" data-original="#000000" style="" class=""/></g></svg>
